<?xml version="1.0" encoding="utf-8"?>
<!-- Generator: Adobe Illustrator 18.0.0, SVG Export Plug-In . SVG Version: 6.00 Build 0)  -->
<!DOCTYPE svg PUBLIC "-//W3C//DTD SVG 1.1//EN" "http://www.w3.org/Graphics/SVG/1.1/DTD/svg11.dtd">
<svg version="1.1" id="Layer_1" xmlns="http://www.w3.org/2000/svg" xmlns:xlink="http://www.w3.org/1999/xlink" x="0px" y="0px"
	 viewBox="0 0 163.968 32.891" enable-background="new 0 0 163.968 32.891" xml:space="preserve">
<g>
	<path fill="#FFFFFF" d="M16.421,9.674c1.617,0,2.855,0.797,3.59,1.658l-0.567,0.63c-0.756-0.84-1.764-1.407-3.023-1.407
		c-3.023,0-4.913,2.415-4.913,6.258c0,3.842,1.869,6.319,4.829,6.319c1.428,0,2.499-0.567,3.506-1.7l0.567,0.608
		c-1.05,1.218-2.31,1.974-4.115,1.974c-3.401,0-5.795-2.793-5.795-7.201C10.5,12.424,12.893,9.674,16.421,9.674z"/>
	<path fill="#FFFFFF" d="M26.619,16.791c0-4.367,2.373-7.117,5.711-7.117c3.317,0,5.69,2.75,5.69,7.117
		c0,4.389-2.373,7.223-5.69,7.223C28.991,24.013,26.619,21.179,26.619,16.791z M37.012,16.791c0-3.821-1.89-6.236-4.682-6.236
		c-2.813,0-4.703,2.415-4.703,6.236c0,3.842,1.89,6.341,4.703,6.341C35.122,23.132,37.012,20.632,37.012,16.791z"/>
	<path fill="#FFFFFF" d="M44.519,9.925h0.966v12.996h6.362v0.84h-7.328V9.925z"/>
	<path fill="#FFFFFF" d="M57.347,16.791c0-4.367,2.373-7.117,5.711-7.117c3.317,0,5.69,2.75,5.69,7.117
		c0,4.389-2.373,7.223-5.69,7.223C59.719,24.013,57.347,21.179,57.347,16.791z M67.74,16.791c0-3.821-1.89-6.236-4.682-6.236
		c-2.813,0-4.703,2.415-4.703,6.236c0,3.842,1.89,6.341,4.703,6.341C65.85,23.132,67.74,20.632,67.74,16.791z"/>
	<path fill="#FFFFFF" d="M83.176,23.761L79.439,17.4H76.5v6.361h-0.966V9.925h3.947c2.75,0,4.556,1.008,4.556,3.652
		c0,2.205-1.386,3.465-3.548,3.759l3.8,6.425H83.176z M79.229,16.601c2.457,0,3.8-0.986,3.8-3.023c0-2.078-1.344-2.834-3.8-2.834
		H76.5v5.857H79.229z"/>
	<path fill="#FFFFFF" d="M92.411,9.925h1.344l2.897,8.125l1.092,3.065h0.084l1.071-3.065l2.876-8.125h1.365v13.836h-0.945V14.67
		c0-1.133,0.063-2.582,0.126-3.736h-0.084l-1.071,3.044l-2.981,8.272h-0.84l-2.981-8.272l-1.092-3.044h-0.084
		c0.042,1.154,0.105,2.604,0.105,3.736v9.092h-0.882V9.925z"/>
	<path fill="#FFFFFF" d="M108.939,16.791c0-4.367,2.373-7.117,5.711-7.117c3.317,0,5.69,2.75,5.69,7.117
		c0,4.389-2.373,7.223-5.69,7.223C111.312,24.013,108.939,21.179,108.939,16.791z M119.332,16.791c0-3.821-1.89-6.236-4.682-6.236
		c-2.813,0-4.703,2.415-4.703,6.236c0,3.842,1.89,6.341,4.703,6.341C117.443,23.132,119.332,20.632,119.332,16.791z"/>
	<path fill="#FFFFFF" d="M126.874,9.925h1.008l5.816,9.763l1.575,2.751h0.084c-0.063-1.344-0.126-2.688-0.126-4.031V9.925h0.903
		v13.836h-1.008l-5.816-9.764l-1.575-2.75h-0.084c0.063,1.322,0.126,2.582,0.126,3.926v8.588h-0.903V9.925z"/>
	<path fill="#FFFFFF" d="M142.668,16.791c0-4.367,2.373-7.117,5.711-7.117c3.317,0,5.69,2.75,5.69,7.117
		c0,4.389-2.373,7.223-5.69,7.223C145.04,24.013,142.668,21.179,142.668,16.791z M153.061,16.791c0-3.821-1.89-6.236-4.682-6.236
		c-2.813,0-4.703,2.415-4.703,6.236c0,3.842,1.89,6.341,4.703,6.341C151.171,23.132,153.061,20.632,153.061,16.791z"/>
	<g>
		<path fill="#FFFFFF" d="M163.968,32.891H0V0h163.968V32.891z M1,31.891h161.968V1H1V31.891z"/>
	</g>
</g>
</svg>
